<?xml version="1.0" encoding="iso-8859-1"?>
<!-- Generator: Adobe Illustrator 19.0.0, SVG Export Plug-In . SVG Version: 6.00 Build 0)  -->
<svg version="1.1" id="Layer_1" xmlns="http://www.w3.org/2000/svg" xmlns:xlink="http://www.w3.org/1999/xlink" x="0px" y="0px"
	 viewBox="0 0 511.999 511.999" style="enable-background:new 0 0 511.999 511.999;" xml:space="preserve">
<path style="fill:#00997C;" d="M464.139,493.047l-95.243-162.859H143.118L47.891,493.047c-1.357,2.301-1.357,5.117,0,7.417
	c1.326,2.283,3.795,3.7,6.481,3.7H457.63c2.682,0,5.153-1.416,6.51-3.7C465.467,498.163,465.467,495.348,464.139,493.047z"/>
<g style="opacity:0.2;">
	<path style="fill:#414042;" d="M102.555,500.463c-1.357-2.3-1.357-5.116,0-7.417l95.227-162.859H143.12L47.891,493.047
		c-1.357,2.301-1.357,5.117,0,7.417c1.326,2.283,3.795,3.7,6.481,3.7h54.663C106.349,504.163,103.881,502.747,102.555,500.463z"/>
</g>
<path style="fill:#00B494;" d="M398.516,339.947L320.698,206.89H191.303l-77.817,133.057c-1.329,2.301-1.329,5.116,0,7.419
	c1.359,2.281,3.825,3.701,6.509,3.701h272.009c2.682,0,5.151-1.419,6.51-3.701C399.839,345.063,399.839,342.248,398.516,339.947z"/>
<g style="opacity:0.2;">
	<path style="fill:#414042;" d="M166.198,347.366c-1.327-2.302-1.327-5.118,0-7.419l77.818-133.057h-52.712l-77.817,133.057
		c-1.329,2.301-1.329,5.116,0,7.419c1.359,2.281,3.825,3.701,6.509,3.701h52.712C170.025,351.066,167.559,349.647,166.198,347.366z"
		/>
</g>
<path style="fill:#00997C;" d="M166.402,225.7c-2.718,0-5.185-1.42-6.51-3.702c-1.36-2.302-1.36-5.132,0-7.419l89.597-153.251
	c1.358-2.301,3.829-3.702,6.511-3.702c2.684,0,5.154,1.401,6.511,3.702l89.599,153.251c1.355,2.286,1.355,5.116,0,7.419
	c-1.328,2.282-3.827,3.702-6.512,3.702H166.402z"/>
<g style="opacity:0.2;">
	<path style="fill:#414042;" d="M203.669,221.998c-1.359-2.302-1.359-5.132,0-7.419L277.888,87.63l-15.378-26.302
		c-1.357-2.301-3.826-3.702-6.511-3.702c-2.682,0-5.153,1.401-6.511,3.702l-89.597,153.251c-1.36,2.286-1.36,5.116,0,7.419
		c1.325,2.282,3.793,3.702,6.51,3.702h43.777C207.462,225.7,204.995,224.28,203.669,221.998z"/>
</g>
<path style="fill:#F0D355;" d="M282.011,106.286c-1,0-1.991-0.165-2.947-0.496l-23.303-8.045l-23.312,8.045
	c-0.968,0.33-1.96,0.496-2.956,0.496c-1.877,0-3.733-0.586-5.293-1.715c-2.384-1.726-3.768-4.507-3.71-7.441l0.473-24.563
	l-14.881-19.585c-1.778-2.342-2.299-5.401-1.386-8.191c0.92-2.797,3.135-4.965,5.949-5.824l23.607-7.129l14.111-20.155
	c1.691-2.407,4.442-3.846,7.398-3.846c2.934,0,5.701,1.439,7.378,3.846l14.12,20.155l23.601,7.129
	c2.821,0.859,5.043,3.027,5.949,5.824c0.91,2.79,0.392,5.849-1.387,8.191L290.55,72.567l0.47,24.563
	c0.055,2.935-1.328,5.715-3.715,7.441C285.749,105.694,283.883,106.286,282.011,106.286z"/>
<path style="fill:#636052;" d="M470.904,489.091L394.63,358.667c4.38-0.766,8.306-3.411,10.618-7.29l0.062-0.107
	c2.701-4.698,2.701-10.535-0.028-15.281l-59.92-102.454h0.238c5.467,0,10.559-2.911,13.265-7.563
	c2.799-4.757,2.795-10.653,0.011-15.349l-61.826-105.747c1.218-2.413,1.858-5.116,1.806-7.896l-0.418-21.843l13.224-17.416
	c3.331-4.388,4.302-10.13,2.6-15.347c-1.692-5.222-5.849-9.299-11.138-10.91l-21.006-6.345L269.57,7.204
	C266.428,2.694,261.265,0,255.761,0c-5.491,0-10.654,2.683-13.818,7.188L229.387,25.12l-21.033,6.351
	c-5.242,1.602-9.393,5.665-11.108,10.882c-1.712,5.231-0.743,10.977,2.593,15.371l13.234,17.415l-0.42,21.835
	c-0.06,2.952,0.669,5.817,2.04,8.342l-61.537,105.255c-2.821,4.743-2.826,10.646-0.041,15.361c2.724,4.688,7.816,7.602,13.286,7.602
	h0.239l-59.938,102.49c-2.72,4.705-2.72,10.552-0.001,15.26l0.054,0.092c2.314,3.884,6.246,6.529,10.632,7.292L41.141,489.064
	c-2.798,4.743-2.798,10.637-0.025,15.335c2.723,4.687,7.803,7.6,13.258,7.6h403.257c5.411,0,10.487-2.887,13.296-7.617
	C473.642,499.677,473.642,493.832,470.904,489.091z M212.323,48.243c-0.224-0.294-0.29-0.674-0.183-1.004
	c0.124-0.377,0.413-0.661,0.77-0.769l26.204-7.914l15.661-22.368c0.445-0.634,1.487-0.665,1.944-0.007l15.676,22.375l26.18,7.908
	c0.373,0.114,0.664,0.392,0.783,0.759c0.112,0.346,0.046,0.727-0.178,1.021l-16.517,21.753l0.522,27.281
	c0.006,0.373-0.17,0.726-0.46,0.935c-0.322,0.233-0.734,0.298-1.107,0.17l-25.859-8.928l-25.846,8.919
	c-0.147,0.05-0.284,0.074-0.422,0.074c-0.177,0-0.442-0.04-0.697-0.225c-0.303-0.218-0.479-0.569-0.471-0.943l0.526-27.286
	L212.323,48.243z M227.759,114.023c0.574,0.059,1.149,0.099,1.733,0.099c1.864,0,3.711-0.308,5.513-0.925l20.754-7.162l20.742,7.162
	c1.776,0.614,3.63,0.926,5.509,0.926c0.735,0,1.468-0.062,2.196-0.158l60.745,103.899H167.05L227.759,114.023z M184.798,233.537
	h142.405l64.154,109.692H120.646L184.798,233.537z M55.051,496.327l80.355-137.424h241.205l80.367,137.424H55.051z"/>
<ellipse style="fill:#F0D355;" cx="227.307" cy="191.216" rx="12.524" ry="12.539"/>
<ellipse style="fill:#FFFFFF;" cx="284.703" cy="191.216" rx="12.525" ry="12.539"/>
<ellipse style="fill:#F0D355;" cx="168.333" cy="318.694" rx="12.524" ry="12.539"/>
<ellipse style="fill:#FFFFFF;" cx="226.785" cy="318.694" rx="12.524" ry="12.539"/>
<ellipse style="fill:#F0D355;" cx="285.226" cy="318.694" rx="12.524" ry="12.539"/>
<ellipse style="fill:#FFFFFF;" cx="343.677" cy="318.694" rx="12.525" ry="12.539"/>
<ellipse style="fill:#F0D355;" cx="109.881" cy="468.114" rx="12.524" ry="12.539"/>
<ellipse style="fill:#FFFFFF;" cx="168.333" cy="468.114" rx="12.524" ry="12.539"/>
<ellipse style="fill:#F0D355;" cx="226.785" cy="468.114" rx="12.524" ry="12.539"/>
<ellipse style="fill:#FFFFFF;" cx="285.226" cy="468.114" rx="12.524" ry="12.539"/>
<ellipse style="fill:#F0D355;" cx="343.677" cy="468.114" rx="12.525" ry="12.539"/>
<ellipse style="fill:#FFFFFF;" cx="402.118" cy="468.114" rx="12.524" ry="12.539"/>
<g style="opacity:0.1;">
	<path style="fill:#414042;" d="M241.967,67.865c-9.912-9.924-16.189-21.665-18.429-32.792l-12.894,3.894
		c-2.814,0.859-5.03,3.027-5.949,5.824c-0.913,2.79-0.393,5.849,1.386,8.191l14.881,19.585l-0.473,24.563
		c-0.059,2.935,1.326,5.715,3.71,7.441c1.56,1.128,3.417,1.715,5.293,1.715c0.996,0,1.988-0.165,2.956-0.496l23.312-8.045
		l23.303,8.045c0.956,0.33,1.947,0.496,2.947,0.496c1.872,0,3.739-0.592,5.296-1.715c2.385-1.726,3.769-4.507,3.715-7.441
		l-0.203-10.582C275.955,89.523,256.902,82.817,241.967,67.865z"/>
</g>
<g>
</g>
<g>
</g>
<g>
</g>
<g>
</g>
<g>
</g>
<g>
</g>
<g>
</g>
<g>
</g>
<g>
</g>
<g>
</g>
<g>
</g>
<g>
</g>
<g>
</g>
<g>
</g>
<g>
</g>
</svg>
